<svg width="9" height="13" viewBox="0 0 9 13" fill="none" xmlns="http://www.w3.org/2000/svg">
<path d="M0.265625 6.14062C0.265625 4.89062 0.424479 3.8099 0.742188 2.89844C1.0651 1.98698 1.54167 1.28385 2.17188 0.789062C2.80208 0.294271 3.57812 0.046875 4.5 0.046875C5.42708 0.046875 6.20312 0.294271 6.82812 0.789062C7.45833 1.28385 7.93229 1.98698 8.25 2.89844C8.57292 3.8099 8.73438 4.89062 8.73438 6.14062C8.73438 7.39062 8.57292 8.47135 8.25 9.38281C7.93229 10.2943 7.45833 10.9974 6.82812 11.4922C6.20312 11.987 5.42708 12.2344 4.5 12.2344C3.57812 12.2344 2.80208 11.987 2.17188 11.4922C1.54167 10.9974 1.0651 10.2943 0.742188 9.38281C0.424479 8.47135 0.265625 7.39062 0.265625 6.14062ZM2.65625 6.14062C2.65625 7.36458 2.8125 8.33594 3.125 9.05469C3.4375 9.76823 3.89583 10.125 4.5 10.125C5.10417 10.125 5.5625 9.76823 5.875 9.05469C6.1875 8.33594 6.34375 7.36458 6.34375 6.14062C6.34375 4.91146 6.1875 3.9401 5.875 3.22656C5.5625 2.51302 5.10417 2.15625 4.5 2.15625C3.89583 2.15625 3.4375 2.51302 3.125 3.22656C2.8125 3.9401 2.65625 4.91146 2.65625 6.14062Z" fill="#1D2026"/>
</svg>
